<svg xmlns="http://www.w3.org/2000/svg" width="40.519" height="41" viewBox="0 0 40.519 41">
  <g id="Group_169" data-name="Group 169" transform="translate(-508.423 -541.17)">
    <path id="Path_78" data-name="Path 78" d="M510.419,545.559h36.717v35.158H509.7V545.559Z" fill="#5f7f95"/>
    <path id="Path_62" data-name="Path 62" d="M546.438,544.614h-6.39V541.17h-2v7.411h2v-1.967h6.39a.508.508,0,0,1,.5.5V553.5H510.419v-6.389a.507.507,0,0,1,.5-.5h6.394v-2h-6.39a2.5,2.5,0,0,0-2.5,2.5V579.67a2.5,2.5,0,0,0,2.5,2.5h35.519a2.5,2.5,0,0,0,2.5-2.5V547.114a2.5,2.5,0,0,0-2.5-2.5ZM518.049,580.17h-7.13a.507.507,0,0,1-.5-.5v-6.389h7.63Zm0-8.889h-7.63v-6.889h7.63Zm0-8.889h-7.63V555.5h7.63Zm9.629,17.778h-7.629v-6.889h7.629Zm0-8.889h-7.629v-6.889h7.629Zm0-8.889h-7.629V555.5h7.629Zm9.63,17.778h-7.63v-6.889h7.63Zm0-8.889h-7.63v-6.889h7.63Zm0-8.889h-7.63V555.5h7.63Zm9.63,17.278a.507.507,0,0,1-.5.5h-7.13v-6.889h7.63Zm0-8.389h-7.63v-6.889h7.63Zm0-8.889h-7.63V555.5h7.63Zm-25.666-13.811h-2V541.17h2v3.444h14.812v2H521.272Z" fill="#fff"/>
  </g>
</svg>
