<svg id="Group_174" data-name="Group 174" xmlns="http://www.w3.org/2000/svg" width="26.182" height="16" viewBox="0 0 26.182 16">
  <path id="Path_55" data-name="Path 55" d="M418.464,95.592c-7.873,0-13.091,5.692-13.091,8s5.217,8,13.091,8,13.091-5.693,13.091-8S426.338,95.592,418.464,95.592Zm0,13.818a5.818,5.818,0,1,1,5.818-5.818A5.825,5.825,0,0,1,418.464,109.41Zm-11.636-5.818c0-1.025,2.768-4.444,7.383-5.887a7.247,7.247,0,0,0,0,11.773C409.6,108.035,406.828,104.617,406.828,103.592Zm15.89,5.887a7.248,7.248,0,0,0,0-11.773c4.615,1.443,7.383,4.861,7.383,5.887S427.333,108.035,422.718,109.479Z" transform="translate(-405.373 -95.592)" fill="#07bac1"/>
  <path id="Path_56" data-name="Path 56" d="M422.282,102.592a2.861,2.861,0,0,0-.842.139,1.452,1.452,0,1,1-1.927,1.927,2.863,2.863,0,0,0-.14.843,2.909,2.909,0,1,0,2.909-2.909Z" transform="translate(-409.191 -97.501)" fill="#07bac1"/>
</svg>
