<svg xmlns="http://www.w3.org/2000/svg" width="20.872" height="21.136" viewBox="0 0 20.872 21.136">
  <path id="Path_58" data-name="Path 58" d="M151.046,218.33A1.838,1.838,0,0,0,149,216.266H135.321a1.839,1.839,0,0,0-2.048,2.067v1.095h-.961a1.932,1.932,0,0,0-2.1,1.921s-.019,13.567-.019,14.876c0,1.231,1.165,1.588,2.167.635.942-.9,3.878-3.683,3.878-3.683h11.548s.413.483.6.671c1.322,1.321,2.679.668,2.679-.923C151.061,231.9,151.046,218.33,151.046,218.33Zm-15.21,13.852-4.647,4.421.014-15.254c0-.571.425-.926,1.11-.926h.961v7.944a1.838,1.838,0,0,0,2.048,2.065h10l1.568,1.75Zm13.288,1-3.356-3.747H135.321c-.781,0-1.052-.273-1.052-1.069V218.333c0-.8.272-1.071,1.052-1.071H149c.784,0,1.054.273,1.054,1.069,0,0,.015,13.781.015,14.594S149.635,233.753,149.124,233.183Zm-1.853-11.272h-10.3a.5.5,0,1,1,0-1h10.3a.5.5,0,0,1,0,1Zm0,3.981h-10.3a.5.5,0,0,1,0-1h10.3a.5.5,0,0,1,0,1Z" transform="translate(-130.189 -216.266)" fill="#5e7fb1"/>
</svg>
