<svg xmlns="http://www.w3.org/2000/svg" width="17.682" height="17.74" viewBox="0 0 17.682 17.74">
  <g id="edit" transform="translate(0.289 0.289)">
    <g id="Action_1" data-name="Action 1" transform="translate(0)">
      <path id="compose" d="M13.807,16.68H0V2.868H10.9l-.726.727H.726V15.953H13.081V6.5l.726-.726v10.9ZM5.623,11.028h0L5.991,9.7l.368-1.326L9.946,4.816l3.587-3.563.314.313.315.315L6.99,9.007l.463.46.167.166,7.174-7.126.3.294.334.332L8.25,10.261l-2.627.767Zm10.157-8.25h0L13.889.9,14.15.6l.293-.332a.936.936,0,0,1,1.313,0l.655.654a.884.884,0,0,1,.18.272.918.918,0,0,1,0,.765.909.909,0,0,1-.18.272l-.63.545Z" transform="translate(0.211 0.211)" fill="#007aff" stroke="rgba(0,0,0,0)" stroke-width="1"/>
    </g>
  </g>
</svg>
