<svg xmlns="http://www.w3.org/2000/svg" width="55.309" height="35.071" viewBox="0 0 55.309 35.071">
  <g id="Group_144" data-name="Group 144" transform="translate(-486.579 -696.784)">
    <path id="Path_74" data-name="Path 74" d="M488.322,720.324l7.157-3.746.394-1.331-1.429-3.5-.591-2.267.394-1.528.838-3.351,2.76-1.676h1.922l1.873.827,1.281,1.292.542,1.725.345,1.528.2,1.331-1.725,6.161,4.041,2.908,3.154-1.232.2-1.922-1.38-2.711-.69-1.774-.838-1.922-.246-2.76.887-3.45,2.021-3.893,3.056-1.183h2.612l2.809.678,1.824,1.589,1.232,3.1.345,2.169.641,1.232-.789,4.288-.789,1.38-1.429,3.154.2,2.119L521.7,718.7l4.485-2.464v-1.8l-1.922-4.555.838-5.027,2.661-1.922,3.647.1,2.07,1.676,1.084,3.844-.641,3.45-1.429,3.647,7.491,4.682.887,1.281v2.612l-9.709,1.922-.444,2.169-1.035.887-12.863,1.873-14.145-.957-4.83-1.408-.69-2.859-5.273-.716-4.189-.811-.444-2.711Z" fill="#5f7f95"/>
    <path id="Path_75" data-name="Path 75" d="M538.642,718.57c-.937-.4-4.576-2.358-5.145-2.618l-.081-.659a10.486,10.486,0,0,0,.979-2.6,1.906,1.906,0,0,0,.606-1.051s.406-2.306.408-2.337a1.686,1.686,0,0,0-.4-1.2c-.136-4.925-3.084-5.973-5.565-5.973s-5.424,1.048-5.562,5.971a1.59,1.59,0,0,0-.4,1.2c.038.347.417,2.358.417,2.358a1.862,1.862,0,0,0,.6,1.031,7.717,7.717,0,0,0,.979,2.6l-.081.659c-.414.189-2.457,1.281-3.9,2.012-.791-.409-1.412-.726-1.654-.832l-.163-1.334a9.363,9.363,0,0,0,1.5-3.943,2.427,2.427,0,0,0,.858-1.4s.6-3.368.6-3.4a2.089,2.089,0,0,0-.59-1.586c-.112-5.681-2.74-8.56-7.814-8.56s-7.7,2.88-7.811,8.56a2.074,2.074,0,0,0-.588,1.591c0,.03.6,3.415.6,3.415a2.417,2.417,0,0,0,.85,1.379,11.712,11.712,0,0,0,1.5,3.944l-.164,1.334c-.24.106-.86.423-1.649.831-1.44-.731-3.478-1.822-3.893-2.011l-.081-.659a10.485,10.485,0,0,0,.979-2.6,1.906,1.906,0,0,0,.606-1.051s.406-2.306.408-2.337a1.686,1.686,0,0,0-.4-1.2c-.137-4.925-3.084-5.973-5.566-5.973s-5.423,1.048-5.561,5.971a1.59,1.59,0,0,0-.4,1.2c.038.347.416,2.358.416,2.358a1.863,1.863,0,0,0,.6,1.031,7.719,7.719,0,0,0,.979,2.6l-.08.659c-.568.26-4.21,2.221-5.15,2.618-1.008.424-3.37,1.419-3.105,4.1a5.754,5.754,0,0,0,.554,1.951c.333.814,5.2,1.9,9.23,2.124a5.053,5.053,0,0,0,.855,2.462c.5.959,8.4,2.523,16.7,2.523,7.184,0,16.4-1.355,17.046-2.522a5.721,5.721,0,0,0,.858-2.481c3.944-.282,8.812-1.148,9.222-2.1a5.163,5.163,0,0,0,.556-1.956C542.011,719.992,539.65,718.995,538.642,718.57Zm-42.063,6.558a28.649,28.649,0,0,1-7.958-1.477,4.6,4.6,0,0,1-.286-1.144c-.108-1.1.447-1.739,2.123-2.445,1.011-.426,5.031-2.592,5.553-2.788a.808.808,0,0,0,.518-.659l.178-1.449a.816.816,0,0,0-.174-.607,6.28,6.28,0,0,1-.958-2.557c-.02-.427-.488-.468-.506-.647l-.371-2.2a.81.81,0,0,0,.381-.687c0-3.262,1.218-4.716,3.947-4.716s3.951,1.454,3.951,4.716a.924.924,0,0,0,.393.733l-.376,2.13c-.05.3-.354.125-.511.669a7.081,7.081,0,0,1-.958,2.557.805.805,0,0,0-.173.607l.177,1.449a.81.81,0,0,0,.519.659c.3.114,1.78.89,3.166,1.605-1.746.909-3.636,1.886-4.373,2.2C498.939,721.878,497.034,722.986,496.579,725.128Zm33.776,1.425a4.042,4.042,0,0,1-.445,1.525c-2.013.859-8.884,2.033-15.849,2.033-6.891,0-13.281-1.036-15.5-2.029a4.019,4.019,0,0,1-.448-1.527c-.18-1.8.729-2.88,3.355-3.985,1.468-.621,7.39-3.812,8.182-4.111a.808.808,0,0,0,.518-.659l.263-2.133a.737.737,0,0,0-.174-.608c-.888-.906-1.41-3.573-1.484-3.907-.113-.516-.619-.466-.749-.982l-.578-3.249c-.076-.461.594-.385.587-1.068-.043-4.872,1.969-7.324,6.2-7.324s6.192,2.327,6.2,7.324c0,.645.633.633.591,1.071l-.576,3.225c-.078.373-.584.525-.758,1-.124.338-.45,2.688-1.482,3.9a.79.79,0,0,0-.174.608l.262,2.134a.811.811,0,0,0,.518.659c.794.3,6.722,3.49,8.191,4.111C529.627,723.675,530.536,724.755,530.355,726.553Zm9.777-4.048a4.519,4.519,0,0,1-.284,1.139,32.523,32.523,0,0,1-7.958,1.463c-.461-2.128-2.362-3.231-4.258-4.029-.738-.312-2.628-1.289-4.375-2.2,1.387-.716,2.868-1.492,3.171-1.606a.81.81,0,0,0,.519-.659l.177-1.449a.817.817,0,0,0-.174-.607,6.281,6.281,0,0,1-.958-2.557c-.02-.427-.488-.468-.506-.647l-.37-2.2a.81.81,0,0,0,.381-.687c0-3.262,1.218-4.716,3.947-4.716s3.951,1.454,3.951,4.716a.922.922,0,0,0,.393.733l-.377,2.13c-.05.3-.353.125-.511.669a7.093,7.093,0,0,1-.957,2.557.806.806,0,0,0-.174.607l.178,1.449a.807.807,0,0,0,.518.659c.523.2,4.539,2.362,5.547,2.788C539.687,720.769,540.241,721.408,540.132,722.505Z" fill="#fff" stroke="#fff" stroke-width="0.25"/>
  </g>
</svg>
