<svg xmlns="http://www.w3.org/2000/svg" width="45.386" height="45.962" viewBox="0 0 45.386 45.962">
  <g id="Group_152" data-name="Group 152" transform="translate(-344.419 -546.17)">
    <path id="Path_79" data-name="Path 79" d="M388.2,578.462l.412,6.134h-2.764l-3.2-2.813-25.412-.048-10.637,9.5-1.244-1.794.485-34.237,2.085-1.066,3.846-.046,1.2-6.6H388.2Z" fill="#5f7f95" opacity="0.998"/>
    <path id="Path_63" data-name="Path 63" d="M389.772,550.657c0-2.936-1.54-4.487-4.456-4.487H355.579c-2.914,0-4.453,1.554-4.453,4.494v2.38h-2.089c-2.694,0-4.577,1.718-4.577,4.177,0,0-.041,29.5-.041,32.348,0,2.677,2.534,3.454,4.711,1.382,2.049-1.951,8.432-8.008,8.432-8.008h25.112s.9,1.051,1.306,1.459c2.874,2.873,5.825,1.453,5.825-2.006C389.8,580.173,389.772,550.657,389.772,550.657ZM356.7,580.778l-10.1,9.614.03-33.17c0-1.242.925-2.014,2.413-2.014h2.089v17.275c0,2.938,1.539,4.489,4.453,4.489H377.33l3.409,3.806Zm28.895,2.178-7.3-8.148H355.579c-1.7,0-2.289-.593-2.289-2.325V550.664c0-1.732.591-2.33,2.289-2.33h29.737c1.7,0,2.292.593,2.292,2.325,0,0,.034,29.966.034,31.735S386.7,584.2,385.593,582.956Zm-4.028-24.51h-22.4a1.082,1.082,0,1,1,0-2.164h22.4a1.082,1.082,0,1,1,0,2.164Zm0,8.656h-22.4a1.082,1.082,0,1,1,0-2.164h22.4a1.082,1.082,0,1,1,0,2.164Z" fill="#fff"/>
  </g>
</svg>
