<svg aria-hidden="true" style="position: absolute; width: 0; height: 0; overflow: hidden;" version="1.1" xmlns="http://www.w3.org/2000/svg" xmlns:xlink="http://www.w3.org/1999/xlink">
  <defs>

    <symbol id="icon-times" viewBox="0 0 22 32">
      <path d="M15.17 16l6.254-6.254c0.767-0.768 0.767-2.012 0-2.78l-1.39-1.39c-0.767-0.768-2.012-0.768-2.78 0l-6.254 6.254-6.254-6.254c-0.768-0.768-2.012-0.768-2.78 0l-1.39 1.39c-0.767 0.768-0.767 2.012 0 2.78l6.254 6.254-6.254 6.254c-0.767 0.767-0.767 2.012 0 2.78l1.39 1.39c0.767 0.767 2.013 0.767 2.78 0l6.254-6.254 6.254 6.254c0.767 0.767 2.012 0.767 2.78 0l1.39-1.39c0.767-0.767 0.767-2.012 0-2.78l-6.254-6.254z"></path>
    </symbol>
    <symbol id="icon-envelope" fill="#36a3bc" viewBox="0 0 32 32">
      <path d="M31.394 11.925c0.244-0.194 0.606-0.012 0.606 0.294v12.781c0 1.656-1.344 3-3 3h-26c-1.656 0-3-1.344-3-3v-12.775c0-0.313 0.356-0.488 0.606-0.294 1.4 1.088 3.256 2.469 9.631 7.1 1.319 0.962 3.544 2.988 5.763 2.975 2.231 0.019 4.5-2.050 5.769-2.975 6.375-4.631 8.225-6.019 9.625-7.106zM16 20c1.45 0.025 3.538-1.825 4.587-2.587 8.294-6.019 8.925-6.544 10.837-8.044 0.363-0.281 0.575-0.719 0.575-1.181v-1.188c0-1.656-1.344-3-3-3h-26c-1.656 0-3 1.344-3 3v1.188c0 0.463 0.212 0.894 0.575 1.181 1.912 1.494 2.544 2.025 10.838 8.044 1.050 0.762 3.138 2.613 4.588 2.587z"></path>
    </symbol>
    <symbol id="icon-bell" viewBox="0 0 28 32">
      <path d="M14 32c2.207 0 3.998-1.791 3.998-4h-7.996c0 2.209 1.791 4 3.998 4zM27.462 22.643c-1.207-1.297-3.467-3.249-3.467-9.643 0-4.856-3.405-8.744-7.996-9.697v-1.303c0-1.104-0.895-2-1.999-2s-1.999 0.896-1.999 2v1.303c-4.591 0.954-7.996 4.841-7.996 9.697 0 6.394-2.259 8.346-3.467 9.643-0.375 0.403-0.541 0.885-0.538 1.357 0.007 1.025 0.811 2 2.006 2h23.988c1.195 0 2-0.975 2.006-2 0.003-0.472-0.163-0.954-0.538-1.357z"></path>
    </symbol>
    <symbol id="icon-bug" viewBox="0 0 32 32">
      <path d="M31.999 18.056c-0.030 1.089-0.951 1.944-2.041 1.944h-3.458v1c0 1.366-0.305 2.662-0.85 3.822l3.764 3.764c0.781 0.781 0.781 2.047 0 2.828s-2.047 0.781-2.829 0l-3.421-3.421c-1.547 1.255-3.518 2.007-5.665 2.007v-15.25c0-0.414-0.336-0.75-0.75-0.75h-1.5c-0.414 0-0.75 0.336-0.75 0.75v15.25c-2.147 0-4.118-0.752-5.665-2.007l-3.421 3.421c-0.781 0.781-2.047 0.781-2.829 0s-0.781-2.047 0-2.828l3.764-3.764c-0.545-1.16-0.85-2.455-0.85-3.822v-1h-3.458c-1.090 0-2.011-0.854-2.041-1.944-0.031-1.13 0.876-2.056 1.999-2.056h3.5v-3.672l-2.914-2.914c-0.781-0.781-0.781-2.047 0-2.828s2.047-0.781 2.829 0l3.414 3.414h14.343l3.414-3.414c0.781-0.781 2.047-0.781 2.829 0s0.781 2.047 0 2.828l-2.914 2.914v3.672h3.5c1.123 0 2.030 0.926 1.999 2.056zM16.063 0c-3.866 0-7 3.134-7 7h14c0-3.866-3.134-7-7-7z"></path>
    </symbol>
    <symbol id="icon-alarm-clock" viewBox="0 0 32 32">
      <path d="M6 0c-3.314 0-6 2.686-6 6v0c0.005 1.192 0.361 2.3 0.97 3.226l-0.014-0.022 9.119-7.599c-1.064-0.994-2.498-1.605-4.075-1.605h-0zM26 0c-1.576 0-3.009 0.61-4.077 1.607l0.003-0.003 9.118 7.598c0.595-0.904 0.95-2.011 0.956-3.2v-0.001c0-3.314-2.686-6-6-6v0zM16 4c-7.731 0-14 6.268-14 14 0 0.001 0 0.002 0 0.003 0 3.158 1.052 6.071 2.825 8.407l-0.025-0.035-2.506 2.506c-0.181 0.181-0.293 0.431-0.293 0.707s0.112 0.526 0.293 0.707l1.414 1.414c0.181 0.181 0.431 0.293 0.707 0.293s0.526-0.112 0.707-0.293v0l2.504-2.508c2.302 1.748 5.216 2.8 8.375 2.8s6.073-1.052 8.41-2.825l-0.035 0.025 2.506 2.506c0.181 0.181 0.431 0.293 0.707 0.293s0.526-0.112 0.707-0.293l1.414-1.414c0.181-0.181 0.293-0.431 0.293-0.707s-0.112-0.526-0.293-0.707l-2.506-2.504c1.746-2.3 2.797-5.212 2.797-8.369 0-0.002 0-0.005 0-0.007v0c0-7.732-6.266-14-14-14zM21.625 22.219l-1.25 1.563c-0.185 0.23-0.466 0.375-0.781 0.375-0.237 0-0.455-0.083-0.627-0.221l0.002 0.002-4.032-3.226c-0.574-0.462-0.938-1.164-0.938-1.952 0-0 0-0 0-0v0-7.76c0-0.552 0.448-1 1-1v0h2c0.552 0 1 0.448 1 1v0 7.039l3.469 2.775c0.23 0.185 0.375 0.466 0.375 0.781 0 0.237-0.083 0.455-0.221 0.627l0.002-0.002z"></path>
    </symbol>
    <symbol id="icon-alarm-exclamation" viewBox="0 0 32 32">
      <path d="M6 0c-3.314 0-6 2.686-6 6v0c0.005 1.192 0.361 2.3 0.97 3.226l-0.014-0.022 9.119-7.599c-1.064-0.994-2.498-1.605-4.075-1.605h-0zM26 0c-1.576 0-3.009 0.61-4.077 1.607l0.003-0.003 9.118 7.598c0.595-0.904 0.95-2.011 0.956-3.2v-0.001c0-3.314-2.686-6-6-6v0zM16 4c-7.731 0-14 6.268-14 14 0 0.001 0 0.002 0 0.003 0 3.158 1.052 6.071 2.825 8.407l-0.025-0.035-2.506 2.506c-0.181 0.181-0.293 0.431-0.293 0.707s0.112 0.526 0.293 0.707l1.414 1.414c0.181 0.181 0.431 0.293 0.707 0.293s0.526-0.112 0.707-0.293v0l2.504-2.508c2.302 1.748 5.216 2.8 8.375 2.8s6.073-1.052 8.41-2.825l-0.035 0.025 2.506 2.506c0.181 0.181 0.431 0.293 0.707 0.293s0.526-0.112 0.707-0.293l1.414-1.414c0.181-0.181 0.293-0.431 0.293-0.707s-0.112-0.526-0.293-0.707l-2.506-2.504c1.746-2.3 2.797-5.212 2.797-8.369 0-0.002 0-0.005 0-0.007v0c0-7.732-6.266-14-14-14zM16 26c-1.105 0-2-0.895-2-2s0.895-2 2-2c1.105 0 2 0.895 2 2v0c0 1.105-0.895 2-2 2v0zM17.587 19.1c-0.052 0.507-0.477 0.899-0.994 0.9h-1.188c-0.517-0.001-0.941-0.393-0.993-0.896l-0-0.004-0.8-8c-0.003-0.029-0.005-0.062-0.005-0.096 0-0.552 0.446-1.001 0.998-1.004h2.788c0.552 0.001 0.999 0.448 0.999 1 0 0.035-0.002 0.070-0.005 0.104l0-0.004z"></path>
    </symbol>
    <symbol id="icon-briefcase" viewBox="0 0 32 32">
      <path d="M20 21c0 0.552-0.448 1-1 1h-6c-0.553 0-1-0.448-1-1v-3h-12v9c0 1.6 1.4 3 3 3h26c1.6 0 3-1.4 3-3v-9h-12v3zM29 8h-5v-3c0-1.6-1.4-3-3-3h-10c-1.6 0-3 1.4-3 3v3h-5c-1.6 0-3 1.4-3 3v5h32v-5c0-1.6-1.4-3-3-3zM20 8h-8v-2h8v2z"></path>
    </symbol>
    <symbol id="icon-briefcase-medical" viewBox="0 0 32 32">
      <path d="M29 8h-5v-3c0-1.656-1.344-3-3-3h-10c-1.656 0-3 1.344-3 3v3h-5c-1.656 0-3 1.344-3 3v18c0 1.656 1.344 3 3 3h26c1.656 0 3-1.344 3-3v-18c0-1.656-1.344-3-3-3zM12 6h8v2h-8v-2zM22 21.5c0 0.275-0.225 0.5-0.5 0.5h-3.5v3.5c0 0.275-0.225 0.5-0.5 0.5h-3c-0.275 0-0.5-0.225-0.5-0.5v-3.5h-3.5c-0.275 0-0.5-0.225-0.5-0.5v-3c0-0.275 0.225-0.5 0.5-0.5h3.5v-3.5c0-0.275 0.225-0.5 0.5-0.5h3c0.275 0 0.5 0.225 0.5 0.5v3.5h3.5c0.275 0 0.5 0.225 0.5 0.5v3z"></path>
    </symbol>
    <symbol id="icon-cog" viewBox="0 0 32 32">
      <path d="M30.462 19.731l-2.663-1.538c0.269-1.45 0.269-2.938 0-4.387l2.663-1.537c0.306-0.175 0.444-0.537 0.344-0.875-0.694-2.225-1.875-4.237-3.419-5.912-0.238-0.256-0.625-0.319-0.925-0.144l-2.663 1.538c-1.119-0.963-2.406-1.706-3.8-2.194v-3.069c0-0.35-0.244-0.656-0.587-0.731-2.294-0.512-4.644-0.487-6.825 0-0.344 0.075-0.588 0.381-0.588 0.731v3.075c-1.387 0.494-2.675 1.237-3.8 2.194l-2.656-1.537c-0.306-0.175-0.688-0.119-0.925 0.144-1.544 1.669-2.725 3.681-3.419 5.912-0.106 0.338 0.038 0.7 0.344 0.875l2.662 1.537c-0.269 1.45-0.269 2.938 0 4.388l-2.663 1.538c-0.306 0.175-0.444 0.538-0.344 0.875 0.694 2.225 1.875 4.238 3.419 5.912 0.237 0.256 0.625 0.319 0.925 0.144l2.663-1.538c1.119 0.962 2.406 1.706 3.8 2.194v3.075c0 0.35 0.244 0.656 0.588 0.731 2.294 0.512 4.644 0.488 6.825 0 0.344-0.075 0.587-0.381 0.587-0.731v-3.075c1.387-0.494 2.675-1.238 3.8-2.194l2.663 1.538c0.306 0.175 0.688 0.119 0.925-0.144 1.544-1.669 2.725-3.681 3.419-5.913 0.094-0.344-0.044-0.706-0.35-0.881zM16 21c-2.756 0-5-2.244-5-5s2.244-5 5-5 5 2.244 5 5-2.244 5-5 5z"></path>
    </symbol>
    <symbol id="icon-cogs" viewBox="0 0 40 32">
      <path d="M32.006 11.938l-0.512 0.894c-0.188 0.331-0.587 0.469-0.944 0.338-0.738-0.275-1.413-0.669-2.006-1.162-0.288-0.238-0.363-0.656-0.175-0.981l0.512-0.894c-0.431-0.5-0.769-1.081-0.994-1.713h-1.031c-0.375 0-0.7-0.269-0.762-0.644-0.125-0.75-0.131-1.538 0-2.319 0.063-0.375 0.387-0.65 0.762-0.65h1.031c0.225-0.631 0.563-1.212 0.994-1.712l-0.512-0.894c-0.188-0.325-0.119-0.744 0.175-0.981 0.594-0.494 1.275-0.887 2.006-1.163 0.356-0.131 0.756 0.006 0.944 0.338l0.512 0.894c0.656-0.119 1.325-0.119 1.981 0l0.513-0.894c0.188-0.331 0.587-0.469 0.944-0.338 0.737 0.275 1.413 0.669 2.006 1.163 0.288 0.238 0.362 0.656 0.175 0.981l-0.513 0.894c0.431 0.5 0.769 1.081 0.994 1.713h1.031c0.375 0 0.7 0.269 0.763 0.644 0.125 0.75 0.131 1.538 0 2.319-0.063 0.375-0.388 0.65-0.763 0.65h-1.031c-0.225 0.631-0.563 1.213-0.994 1.713l0.513 0.894c0.188 0.325 0.119 0.744-0.175 0.981-0.594 0.494-1.275 0.887-2.006 1.162-0.356 0.131-0.756-0.006-0.944-0.338l-0.513-0.894c-0.65 0.119-1.325 0.119-1.981 0zM31.35 8.262c2.406 1.85 5.15-0.894 3.3-3.3-2.406-1.856-5.15 0.894-3.3 3.3zM24.144 17.881l2.106 1.050c0.631 0.363 0.906 1.131 0.656 1.819-0.556 1.512-1.65 2.9-2.663 4.113-0.462 0.556-1.262 0.694-1.894 0.331l-1.819-1.050c-1 0.856-2.163 1.538-3.431 1.981v2.1c0 0.725-0.519 1.35-1.231 1.475-1.537 0.262-3.15 0.275-4.744 0-0.719-0.125-1.25-0.744-1.25-1.475v-2.1c-1.269-0.45-2.431-1.125-3.431-1.981l-1.819 1.044c-0.625 0.363-1.431 0.225-1.894-0.331-1.012-1.212-2.081-2.6-2.638-4.106-0.25-0.681 0.025-1.45 0.656-1.819l2.081-1.050c-0.244-1.306-0.244-2.65 0-3.963l-2.081-1.056c-0.631-0.363-0.912-1.131-0.656-1.813 0.556-1.512 1.625-2.9 2.638-4.112 0.462-0.556 1.263-0.694 1.894-0.331l1.819 1.050c1-0.856 2.162-1.538 3.431-1.981v-2.106c0-0.719 0.512-1.344 1.225-1.469 1.537-0.262 3.156-0.275 4.75-0.006 0.719 0.125 1.25 0.744 1.25 1.475v2.1c1.269 0.45 2.431 1.125 3.431 1.981l1.819-1.050c0.625-0.362 1.431-0.225 1.894 0.331 1.012 1.212 2.075 2.6 2.631 4.112 0.25 0.681 0.006 1.45-0.625 1.819l-2.106 1.050c0.244 1.313 0.244 2.656 0 3.969zM16.794 19.2c3.7-4.813-1.794-10.306-6.606-6.606-3.7 4.813 1.794 10.306 6.606 6.606zM32.006 30.619l-0.512 0.894c-0.188 0.331-0.587 0.469-0.944 0.337-0.738-0.275-1.413-0.669-2.006-1.163-0.288-0.238-0.363-0.656-0.175-0.981l0.512-0.894c-0.431-0.5-0.769-1.081-0.994-1.712h-1.031c-0.375 0-0.7-0.269-0.762-0.644-0.125-0.75-0.131-1.538 0-2.319 0.063-0.375 0.387-0.65 0.762-0.65h1.031c0.225-0.631 0.563-1.212 0.994-1.712l-0.512-0.894c-0.188-0.325-0.119-0.744 0.175-0.981 0.594-0.494 1.275-0.887 2.006-1.163 0.356-0.131 0.756 0.006 0.944 0.337l0.512 0.894c0.656-0.119 1.325-0.119 1.981 0l0.513-0.894c0.188-0.331 0.587-0.469 0.944-0.337 0.737 0.275 1.413 0.669 2.006 1.163 0.288 0.238 0.362 0.656 0.175 0.981l-0.513 0.894c0.431 0.5 0.769 1.081 0.994 1.712h1.031c0.375 0 0.7 0.269 0.763 0.644 0.125 0.75 0.131 1.538 0 2.319-0.063 0.375-0.388 0.65-0.763 0.65h-1.031c-0.225 0.631-0.563 1.212-0.994 1.712l0.513 0.894c0.188 0.325 0.119 0.744-0.175 0.981-0.594 0.494-1.275 0.887-2.006 1.163-0.356 0.131-0.756-0.006-0.944-0.337l-0.513-0.894c-0.65 0.119-1.325 0.119-1.981 0zM31.35 26.938c2.406 1.85 5.15-0.894 3.3-3.3-2.406-1.85-5.15 0.894-3.3 3.3z"></path>
    </symbol>
    <symbol id="icon-comment" viewBox="0 0 32 32">
      <path d="M16 2c-8.838 0-16 5.819-16 13 0 3.1 1.337 5.938 3.563 8.169-0.781 3.15-3.394 5.956-3.425 5.988-0.138 0.144-0.175 0.356-0.094 0.544s0.256 0.3 0.456 0.3c4.144 0 7.25-1.988 8.787-3.212 2.044 0.769 4.313 1.212 6.713 1.212 8.837 0 16-5.819 16-13s-7.163-13-16-13z"></path>
    </symbol>
    <symbol id="icon-comments" viewBox="0 0 36 32">
      <path d="M26 12c0-5.525-5.819-10-13-10s-13 4.475-13 10c0 2.144 0.881 4.119 2.375 5.75-0.837 1.887-2.219 3.387-2.237 3.406-0.138 0.144-0.175 0.356-0.094 0.544s0.256 0.3 0.456 0.3c2.288 0 4.181-0.769 5.544-1.563 2.013 0.981 4.394 1.563 6.956 1.563 7.181 0 13-4.475 13-10zM33.625 25.75c1.494-1.625 2.375-3.606 2.375-5.75 0-4.181-3.344-7.762-8.081-9.256 0.056 0.412 0.081 0.831 0.081 1.256 0 6.619-6.731 12-15 12-0.675 0-1.331-0.050-1.981-0.119 1.969 3.594 6.594 6.119 11.981 6.119 2.563 0 4.944-0.575 6.956-1.563 1.363 0.794 3.256 1.563 5.544 1.563 0.2 0 0.381-0.119 0.456-0.3 0.081-0.181 0.044-0.394-0.094-0.544-0.019-0.019-1.4-1.512-2.237-3.406z"></path>
    </symbol>
    <symbol id="icon-file" viewBox="0 0 24 32">
      <path d="M14 8.5v-8.5h-12.5c-0.831 0-1.5 0.669-1.5 1.5v29c0 0.831 0.669 1.5 1.5 1.5h21c0.831 0 1.5-0.669 1.5-1.5v-20.5h-8.5c-0.825 0-1.5-0.675-1.5-1.5zM24 7.619v0.381h-8v-8h0.381c0.4 0 0.781 0.156 1.063 0.438l6.119 6.125c0.281 0.281 0.438 0.662 0.438 1.056z"></path>
    </symbol>
    <symbol id="icon-file-contract" viewBox="0 0 24 32">
      <path d="M14 8.5v-8.5h-12.5c-0.831 0-1.5 0.669-1.5 1.5v29c0 0.831 0.669 1.5 1.5 1.5h21c0.831 0 1.5-0.669 1.5-1.5v-20.5h-8.5c-0.825 0-1.5-0.675-1.5-1.5zM4 4.5c0-0.276 0.224-0.5 0.5-0.5h5c0.276 0 0.5 0.224 0.5 0.5v1c0 0.276-0.224 0.5-0.5 0.5h-5c-0.276 0-0.5-0.224-0.5-0.5v-1zM4 8.5c0-0.276 0.224-0.5 0.5-0.5h5c0.276 0 0.5 0.224 0.5 0.5v1c0 0.276-0.224 0.5-0.5 0.5h-5c-0.276 0-0.5-0.224-0.5-0.5v-1zM16.051 24h2.949c0.552 0 1 0.448 1 1s-0.448 1-1 1h-2.949c-1.028 0-1.954-0.571-2.415-1.491-0.184-0.37-0.506-0.407-0.636-0.407s-0.451 0.037-0.626 0.387l-0.479 0.959c-0.168 0.33-0.505 0.552-0.894 0.552-0 0-0 0-0.001 0h0c-0.024 0-0.047-0.001-0.071-0.003-0.403-0.028-0.75-0.297-0.877-0.681l-1.052-3.154-0.663 1.992c-0.368 1.104-1.399 1.846-2.563 1.846h-0.774c-0.553 0-1-0.448-1-1s0.447-1 1-1h0.774c0.302 0 0.569-0.192 0.665-0.479l1.137-3.415c0.206-0.613 0.778-1.026 1.424-1.026s1.217 0.412 1.423 1.026l0.867 2.602c1.236-1.012 3.378-0.606 4.125 0.885 0.126 0.254 0.373 0.406 0.635 0.406zM23.563 6.563l-6.119-6.125c-0.281-0.281-0.663-0.438-1.063-0.438h-0.381v8h8v-0.381c0-0.394-0.156-0.775-0.438-1.056z"></path>
    </symbol>
    <symbol id="icon-file-invoice-dollar" viewBox="0 0 24 32">
      <path d="M23.563 6.563l-6.119-6.125c-0.281-0.281-0.663-0.438-1.063-0.438h-0.381v8h8v-0.381c0-0.394-0.156-0.775-0.438-1.056zM14 8.5v-8.5h-12.5c-0.831 0-1.5 0.669-1.5 1.5v29c0 0.831 0.669 1.5 1.5 1.5h21c0.831 0 1.5-0.669 1.5-1.5v-20.5h-8.5c-0.825 0-1.5-0.675-1.5-1.5zM4 4.5c0-0.276 0.224-0.5 0.5-0.5h5c0.276 0 0.5 0.224 0.5 0.5v1c0 0.276-0.224 0.5-0.5 0.5h-5c-0.276 0-0.5-0.224-0.5-0.5v-1zM4 9.5v-1c0-0.276 0.224-0.5 0.5-0.5h5c0.276 0 0.5 0.224 0.5 0.5v1c0 0.276-0.224 0.5-0.5 0.5h-5c-0.276 0-0.5-0.224-0.5-0.5zM13 25.992v1.508c0 0.276-0.224 0.5-0.5 0.5h-1c-0.276 0-0.5-0.224-0.5-0.5v-1.518c-0.706-0.036-1.392-0.282-1.961-0.709-0.244-0.183-0.256-0.548-0.036-0.759l0.734-0.701c0.173-0.165 0.431-0.172 0.633-0.046 0.242 0.151 0.516 0.233 0.801 0.233h1.757c0.406 0 0.738-0.37 0.738-0.824 0-0.372-0.226-0.699-0.548-0.796l-2.813-0.844c-1.162-0.349-1.974-1.464-1.974-2.712 0-1.532 1.191-2.777 2.667-2.817v-1.508c0-0.276 0.224-0.5 0.5-0.5h1c0.276 0 0.5 0.224 0.5 0.5v1.518c0.706 0.036 1.392 0.282 1.961 0.709 0.244 0.183 0.256 0.548 0.036 0.759l-0.734 0.701c-0.173 0.165-0.431 0.172-0.633 0.046-0.242-0.152-0.516-0.233-0.801-0.233h-1.757c-0.406 0-0.738 0.37-0.738 0.824 0 0.372 0.226 0.699 0.548 0.796l2.813 0.844c1.162 0.349 1.974 1.464 1.974 2.712 0 1.533-1.191 2.777-2.667 2.817z"></path>
    </symbol>
    <symbol id="icon-folder" viewBox="0 0 32 32">
      <path d="M29 8h-12l-4-4h-10c-1.657 0-3 1.343-3 3v18c0 1.657 1.343 3 3 3h26c1.657 0 3-1.343 3-3v-14c0-1.657-1.343-3-3-3z"></path>
    </symbol>
    <symbol id="icon-heart" viewBox="0 0 32 32">
      <path d="M28.65 4.019c-3.613-3.038-9.194-2.581-12.65 0.938-3.456-3.519-9.037-3.981-12.65-0.938-4.7 3.956-4.013 10.406-0.663 13.825l10.963 11.169c0.625 0.637 1.463 0.994 2.35 0.994 0.894 0 1.725-0.35 2.35-0.988l10.963-11.169c3.344-3.419 4.044-9.869-0.663-13.831zM27.175 15.738l-10.963 11.169c-0.15 0.15-0.275 0.15-0.425 0l-10.963-11.169c-2.281-2.325-2.744-6.725 0.456-9.419 2.431-2.044 6.181-1.737 8.531 0.656l2.188 2.231 2.188-2.231c2.363-2.406 6.113-2.7 8.531-0.662 3.194 2.694 2.719 7.119 0.456 9.425z"></path>
    </symbol>
    <symbol id="icon-heart-rate" viewBox="0 0 40 32">
      <path d="M39 14h-9c-0.758 0-1.451 0.428-1.789 1.106l-1.659 3.318-4.622-16.95c-0.243-0.889-1.066-1.506-1.984-1.472-0.923 0.026-1.708 0.677-1.902 1.58l-4.321 20.168-1.799-6.299c-0.246-0.858-1.030-1.45-1.923-1.45h-9c-0.552 0-1 0.447-1 1v2c0 0.552 0.448 1 1 1h7.491l3.586 12.549c0.246 0.861 1.033 1.45 1.922 1.45 0.023 0 0.046 0 0.068-0.001 0.917-0.031 1.696-0.683 1.889-1.58l4.277-19.962 3.837 14.070c0.222 0.792 0.898 1.379 1.724 1.463l0.009 0.001c0.823 0.075 1.615-0.356 1.986-1.096l3.447-6.894h7.764c0.553 0 1-0.448 1-1v-2c0-0.553-0.447-1-1-1z"></path>
    </symbol>
    <symbol id="icon-lightbulb" viewBox="0 0 22 32">
      <path d="M6.004 28.397c0.001 0.393 0.117 0.778 0.335 1.106l1.068 1.606c0.364 0.541 0.973 0.892 1.665 0.892h3.857c0.692 0 1.302-0.351 1.66-0.885l0.005-0.007 1.068-1.606c0.209-0.311 0.335-0.694 0.335-1.105v-0l0.002-2.397h-9.999l0.003 2.397zM0 11c0 2.773 1.028 5.303 2.723 7.236 1.032 1.178 2.647 3.639 3.263 5.716 0.003 0.016 0.004 0.032 0.007 0.049h10.015c0.003-0.016 0.004-0.032 0.007-0.049 0.616-2.076 2.231-4.537 3.263-5.716 1.694-1.933 2.723-4.463 2.723-7.236 0-6.087-4.943-11.019-11.034-11-6.376 0.019-10.966 5.186-10.966 11zM11 6c-2.757 0-5 2.243-5 5 0 0.553-0.447 1-1 1s-1-0.447-1-1c0-3.86 3.14-7 7-7 0.553 0 1 0.447 1 1s-0.447 1-1 1z"></path>
    </symbol>
    <symbol id="icon-users-medical" viewBox="0 0 40 32">
      <path d="M6 14c2.209 0 4-1.791 4-4s-1.791-4-4-4c-2.209 0-4 1.791-4 4v0c0.002 2.208 1.792 3.998 4 4h0zM20 16c3.866 0 7-3.134 7-7s-3.134-7-7-7c-3.866 0-7 3.134-7 7v0c0 0.001 0 0.002 0 0.004 0 3.864 3.132 6.996 6.996 6.996 0.001 0 0.003 0 0.004 0h-0zM22 22c0-1.194 0.245-2.323 0.631-3.386-0.787 0.239-1.691 0.38-2.628 0.386h-0.003c-1.538 0-2.975-0.375-4.281-1h-0.519c-3.976 0.001-7.199 3.224-7.2 7.2v1.8c0 1.657 1.343 3 3 3v0h15.063c-2.451-1.824-4.063-4.717-4.063-8zM10.819 17.163c-0.721-0.718-1.716-1.163-2.814-1.163-0.002 0-0.003 0-0.005 0h-4c-2.208 0.002-3.998 1.792-4 4v2c0 1.105 0.895 2 2 2v0h4.119c0.406-2.965 2.179-5.445 4.653-6.814l0.047-0.024zM32 14c-4.418 0-8 3.582-8 8s3.582 8 8 8c4.418 0 8-3.582 8-8v0c0-4.418-3.582-8-8-8v0zM36 23c0 0.184-0.149 0.333-0.333 0.333v0h-2.334v2.334c0 0.184-0.149 0.333-0.333 0.333h-2c-0.184 0-0.333-0.149-0.333-0.333v0-2.334h-2.334c-0.184 0-0.333-0.149-0.333-0.333v-2c0-0.184 0.149-0.333 0.333-0.333v0h2.334v-2.334c0-0.184 0.149-0.333 0.333-0.333h2c0.184 0 0.333 0.149 0.333 0.333v0 2.334h2.334c0.184 0 0.333 0.149 0.333 0.333v0z"></path>
    </symbol>
    <symbol id="icon-chevron-right" viewBox="0 0 16 32">
      <path d="M1.544 2.381l-1.237 1.237c-0.293 0.293-0.293 0.768 0 1.061l11.294 11.321-11.294 11.321c-0.293 0.293-0.293 0.768 0 1.061l1.237 1.237c0.293 0.293 0.768 0.293 1.061 0l13.088-13.088c0.293-0.293 0.293-0.768 0-1.061l-13.088-13.088c-0.293-0.293-0.768-0.293-1.061 0z"></path>
    </symbol>
    <symbol id="icon-chevron-left" viewBox="0 0 320 512">
      <path d="M34.52 239.03L228.87 44.69c9.37-9.37 24.57-9.37 33.94 0l22.67 22.67c9.36 9.36 9.37 24.52.04 33.9L131.49 256l154.02 154.75c9.34 9.38 9.32 24.54-.04 33.9l-22.67 22.67c-9.37 9.37-24.57 9.37-33.94 0L34.52 272.97c-9.37-9.37-9.37-24.57 0-33.94z"/>
    </symbol>
    <symbol id="icon-circle" viewBox="0 0 32 32">
      <path d="M16 0.5c-8.563 0-15.5 6.938-15.5 15.5s6.938 15.5 15.5 15.5 15.5-6.938 15.5-15.5-6.938-15.5-15.5-15.5z"></path>
    </symbol>
    <symbol id="icon-cloud-download-alt" viewBox="0 0 40 32">
      <path d="M33.6 14.162c0.256-0.669 0.4-1.4 0.4-2.162 0-3.313-2.688-6-6-6-1.231 0-2.381 0.375-3.331 1.013-1.731-3-4.963-5.013-8.669-5.013-5.525 0-10 4.475-10 10 0 0.169 0.006 0.338 0.013 0.506-3.5 1.231-6.013 4.569-6.013 8.494 0 4.969 4.031 9 9 9h23c4.419 0 8-3.581 8-8 0-3.869-2.75-7.1-6.4-7.838zM25.294 19.706l-6.588 6.588c-0.387 0.387-1.025 0.387-1.413 0l-6.588-6.587c-0.631-0.631-0.181-1.706 0.706-1.706h4.088v-7c0-0.55 0.45-1 1-1h3c0.55 0 1 0.45 1 1v7h4.088c0.887 0 1.337 1.075 0.706 1.706z"></path>
    </symbol>
    <symbol id="icon-download" viewBox="0 0 32 32">
      <path d="M13.5 0h5c0.831 0 1.5 0.669 1.5 1.5v10.5h5.481c1.113 0 1.669 1.344 0.881 2.131l-9.506 9.512c-0.469 0.469-1.238 0.469-1.706 0l-9.519-9.512c-0.787-0.787-0.231-2.131 0.881-2.131h5.487v-10.5c0-0.831 0.669-1.5 1.5-1.5zM32 23.5v7c0 0.831-0.669 1.5-1.5 1.5h-29c-0.831 0-1.5-0.669-1.5-1.5v-7c0-0.831 0.669-1.5 1.5-1.5h9.169l3.063 3.063c1.256 1.256 3.281 1.256 4.537 0l3.063-3.063h9.169c0.831 0 1.5 0.669 1.5 1.5zM24.25 29c0-0.688-0.563-1.25-1.25-1.25s-1.25 0.563-1.25 1.25 0.563 1.25 1.25 1.25 1.25-0.563 1.25-1.25zM28.25 29c0-0.688-0.563-1.25-1.25-1.25s-1.25 0.563-1.25 1.25 0.563 1.25 1.25 1.25 1.25-0.563 1.25-1.25z"></path>
    </symbol>
    <symbol id="icon-phone-alt" viewBox="0 0 32 32">
      <path d="M31.087 22.613l-7-3c-0.173-0.076-0.376-0.12-0.588-0.12-0.467 0-0.885 0.214-1.16 0.549l-0.002 0.003-3.1 3.788c-4.885-2.34-8.734-6.189-11.014-10.935l-0.060-0.139 3.787-3.1c0.338-0.277 0.552-0.694 0.552-1.161 0-0.213-0.044-0.415-0.125-0.599l0.004 0.010-3-7c-0.239-0.538-0.768-0.906-1.384-0.906-0.119 0-0.234 0.014-0.345 0.040l0.010-0.002-6.5 1.5c-0.671 0.159-1.163 0.753-1.163 1.462 0 0 0 0 0 0v-0c0 16.031 12.994 29 29 29 0 0 0.001 0 0.001 0 0.709 0 1.303-0.492 1.459-1.152l0.002-0.010 1.5-6.5c0.023-0.1 0.037-0.215 0.037-0.333 0-0.619-0.371-1.152-0.903-1.388l-0.010-0.004z"></path>
    </symbol>
    <symbol id="icon-search" viewBox="0 0 32 32">
      <path d="M31.781 29.306l-7.587-7.587c-0.144-0.144-0.331-0.219-0.531-0.219h-0.825c1.969-2.281 3.163-5.25 3.163-8.5 0-7.181-5.819-13-13-13s-13 5.819-13 13 5.819 13 13 13c3.25 0 6.219-1.194 8.5-3.163v0.825c0 0.2 0.081 0.387 0.219 0.531l7.588 7.588c0.294 0.294 0.769 0.294 1.063 0l1.413-1.413c0.294-0.294 0.294-0.769 0-1.063zM13 23c-5.525 0-10-4.475-10-10s4.475-10 10-10 10 4.475 10 10-4.475 10-10 10z"></path>
    </symbol>
    <symbol id="icon-home" viewBox="0 0 32 32">
      <path  d="M12,0,0,9H3V21H9V15h6v6h6V8.91L24,9Z" fill="#e4e4e4"/>
    </symbol>

    <symbol id="icon-calendar" viewBox="0 0 32 32">
      <path d="M.563,9H20.438A.564.564,0,0,1,21,9.563V21.75A2.251,2.251,0,0,1,18.75,24H2.25A2.251,2.251,0,0,1,0,21.75V9.563A.564.564,0,0,1,.563,9ZM21,6.938V5.25A2.251,2.251,0,0,0,18.75,3H16.5V.563A.564.564,0,0,0,15.938,0H14.063A.564.564,0,0,0,13.5.563V3h-6V.563A.564.564,0,0,0,6.938,0H5.063A.564.564,0,0,0,4.5.563V3H2.25A2.251,2.251,0,0,0,0,5.25V6.938A.564.564,0,0,0,.563,7.5H20.438A.564.564,0,0,0,21,6.938Z" fill="#e4e4e4"/>
    </symbol>

    <symbol id="icon-contacts" viewBox="0 0 32 32">
      <path d="M21,0H5V2H21ZM5,24H21V22H5ZM21,4H5A2.006,2.006,0,0,0,3,6V18a2.006,2.006,0,0,0,2,2H21a2.006,2.006,0,0,0,2-2V6A2.006,2.006,0,0,0,21,4ZM13,6.75A2.25,2.25,0,1,1,10.75,9,2.253,2.253,0,0,1,13,6.75ZM18,17H8V15.5c0-1.67,3.33-2.5,5-2.5s5,.83,5,2.5Z" transform="translate(-3)" fill="#e4e4e4"/>
    </symbol>

    <symbol id="icon-search-circle" width="24" height="24" viewBox="0 0 24 24">
      <g transform="translate(-229 -19)">
        <circle id="Ellipse_52" data-name="Ellipse 52" cx="12" cy="12" r="12" transform="translate(229 19)" fill="#e4e4e4"/>
        <g id="Icon_feather-search" data-name="Icon feather-search" transform="translate(236.29 26.468)">
          <path id="Path_444" data-name="Path 444" d="M12.557,8.528A4.028,4.028,0,1,1,8.528,4.5a4.028,4.028,0,0,1,4.028,4.028Z" transform="translate(-4.5 -4.5)" fill="none" stroke="#16434e" stroke-linecap="round" stroke-linejoin="round" stroke-width="2"/>
          <path id="Path_445" data-name="Path 445" d="M27.165,27.165l-2.19-2.19" transform="translate(-18.102 -18.102)" fill="none" stroke="#16434e" stroke-linecap="round" stroke-linejoin="round" stroke-width="2"/>
        </g>
      </g>
    </symbol>
    <symbol id="icon-ios-pin" width="20.25" height="29.25" viewBox="0 0 20.25 29.25">
      <path d="M18,3.375c-5.59,0-10.125,4.212-10.125,9.4C7.875,20.088,18,32.625,18,32.625S28.125,20.088,28.125,12.776C28.125,7.587,23.59,3.375,18,3.375ZM18,16.8a3.3,3.3,0,1,1,3.3-3.3A3.3,3.3,0,0,1,18,16.8Z" transform="translate(-7.875 -3.375)" fill="#d84765"/>
    </symbol>

    <symbol id="icon-chatbubbles" width="24" height="24" viewBox="0 0 24 24">
      <g transform="translate(-3.375 -3.375)">
        <path id="Path_446" data-name="Path 446" d="M26.333,19.1a1.4,1.4,0,0,1,.19-.7,1.943,1.943,0,0,1,.121-.179,9.348,9.348,0,0,0,1.592-5.21A9.814,9.814,0,0,0,18.216,3.375a9.952,9.952,0,0,0-9.825,7.667,9.271,9.271,0,0,0-.213,1.973,9.786,9.786,0,0,0,9.865,9.756,11.881,11.881,0,0,0,2.723-.444c.652-.179,1.3-.415,1.465-.479a1.525,1.525,0,0,1,.537-.1,1.5,1.5,0,0,1,.583.115l3.271,1.16a.78.78,0,0,0,.225.058.459.459,0,0,0,.462-.462.741.741,0,0,0-.029-.156Z" transform="translate(-0.862)" fill="#e4e4e4"/>
        <path id="Path_447" data-name="Path 447" d="M18.981,24.96c-.208.058-.473.121-.762.185a10.648,10.648,0,0,1-1.962.26,9.786,9.786,0,0,1-9.865-9.756,10.907,10.907,0,0,1,.087-1.235c.035-.248.075-.5.133-.738.058-.26.127-.519.2-.773l-.462.41a8.586,8.586,0,0,0-2.977,6.456A8.49,8.49,0,0,0,4.806,24.5c.133.2.208.358.185.462S4.3,28.537,4.3,28.537a.463.463,0,0,0,.156.444.47.47,0,0,0,.294.1.414.414,0,0,0,.167-.035l3.237-1.275a.9.9,0,0,1,.692.012,9.71,9.71,0,0,0,3.5.692A9.061,9.061,0,0,0,19.281,25.3s.185-.254.4-.554C19.465,24.822,19.223,24.9,18.981,24.96Z" transform="translate(0 -1.71)" fill="#e4e4e4"/>
      </g>
    </symbol>

    <symbol id="icon-menu" width="24" height="14" viewBox="0 0 24 14">
      <g transform="translate(-4.5 -10.125)">
        <path id="Path_448" data-name="Path 448" d="M27.5,12.125H5.5a1,1,0,0,1-1-1h0a1,1,0,0,1,1-1h22a1,1,0,0,1,1,1h0A1,1,0,0,1,27.5,12.125Z" fill="#e4e4e4"/>
        <path id="Path_449" data-name="Path 449" d="M27.5,18.875H5.5a1,1,0,0,1-1-1h0a1,1,0,0,1,1-1h22a1,1,0,0,1,1,1h0A1,1,0,0,1,27.5,18.875Z" transform="translate(0 -0.75)" fill="#e4e4e4"/>
        <path id="Path_450" data-name="Path 450" d="M27.5,25.625H5.5a1,1,0,0,1-1-1h0a1,1,0,0,1,1-1h22a1,1,0,0,1,1,1h0A1,1,0,0,1,27.5,25.625Z" transform="translate(0 -1.5)" fill="#e4e4e4"/>
      </g>
    </symbol>


    <symbol id="icon-hamburger"  viewBox="0 0 100 80">
      <rect width="100" height="10" rx="8"></rect>
      <rect y="30" width="100" height="10" rx="8"></rect>
      <rect y="60" width="100" height="10" rx="8"></rect>
    </symbol>
      <symbol  id="icon-sync" viewBox="0 0 512 512">
    <path d="M500 8h-27.711c-6.739 0-12.157 5.548-11.997 12.286l2.347 98.575C418.212 52.043 342.256 8 256 8 134.813 8 33.933 94.924 12.296 209.824 10.908 217.193 16.604 224 24.103 224h28.576c5.674 0 10.542-3.982 11.737-9.529C83.441 126.128 161.917 60 256 60c79.545 0 147.942 47.282 178.676 115.302l-126.39-3.009c-6.737-.16-12.286 5.257-12.286 11.997V212c0 6.627 5.373 12 12 12h192c6.627 0 12-5.373 12-12V20c0-6.627-5.373-12-12-12zm-12.103 280h-28.576c-5.674 0-10.542 3.982-11.737 9.529C428.559 385.872 350.083 452 256 452c-79.546 0-147.942-47.282-178.676-115.302l126.39 3.009c6.737.16 12.286-5.257 12.286-11.997V300c0-6.627-5.373-12-12-12H12c-6.627 0-12 5.373-12 12v192c0 6.627 5.373 12 12 12h27.711c6.739 0 12.157-5.548 11.997-12.286l-2.347-98.575C93.788 459.957 169.744 504 256 504c121.187 0 222.067-86.924 243.704-201.824 1.388-7.369-4.308-14.176-11.807-14.176z" fill="#e4e4e4"/>
  </symbol>
      
    <symbol id="icon-roads-sign" viewBox="0 0 35.97 31.5">
      <g>
        <path d="M35.64,4,30,.2a.72.72,0,0,0-.42-.13L3.78,0a.78.78,0,0,0-.62.33.73.73,0,0,0-.07.7L4.46,4.5,3.07,8a.76.76,0,0,0,.07.7A.74.74,0,0,0,3.76,9l25.84.06A.74.74,0,0,0,30,8.94l5.63-3.73A.77.77,0,0,0,36,4.58.71.71,0,0,0,35.64,4Z"/>
        <path d="M31.51,15.05l1.4-3.46a.76.76,0,0,0-.08-.7.75.75,0,0,0-.62-.33L6.38,10.49a.8.8,0,0,0-.42.13L.33,14.35A.76.76,0,0,0,0,15a.76.76,0,0,0,.33.63l5.61,3.76a.75.75,0,0,0,.41.12l25.84.07h0A.75.75,0,0,0,33,18.8a.85.85,0,0,0-.12-.41l-1.33-3.34Z"/>
        <path d="M14.94,30.73a.74.74,0,0,0,.74.75l4.5,0a.75.75,0,0,0,.75-.75L21,21H15l0,9.73Z"/>
      </g>
    </symbol>
    <symbol id="icon-megaphone" viewBox="0 0 35.89 29.93">
      <g>
        <path d="M28.59,17.65a40.72,40.72,0,0,1-.19-4.18,40.36,40.36,0,0,1,.21-4.18,4.49,4.49,0,0,1,0,8.36ZM31.43,0c-2.38,0-3.86,4.42-4.35,9.65v.16C27,11,26.9,12.24,26.9,13.47s.05,2.46.15,3.65v.08C27.51,22.47,29,27,31.36,27c3,0,4.51-6.77,4.53-13.47S34.38,0,31.43,0Z"/>
        <path d="M20.18,28a.41.41,0,0,1-.13.34.42.42,0,0,1-.36,0l-7.59-2.2A1.36,1.36,0,0,1,11.2,25V21.16l9,2.6V28Zm5.37-10.85c-.1-1.22-.15-2.47-.15-3.73s.06-2.51.17-3.72a2,2,0,0,1,0-.31c.24-2.53.81-6.07,2.18-8.42L5.05,7.45H5c-2,.34-2,5.35-2,6s0,5.6,2,6H5l4.69,1.36V25a2.87,2.87,0,0,0,2,2.63l7.6,2.19a2,2,0,0,0,.58.09A1.82,1.82,0,0,0,21,29.58,1.91,1.91,0,0,0,21.68,28V24.19l6,1.74c-1.37-2.39-1.92-6-2.14-8.54a1.68,1.68,0,0,1,0-.2Z"/>
        <path d="M1.85,9.77a4.5,4.5,0,0,0,0,7.27A17.94,17.94,0,0,1,1.5,13.4a17.84,17.84,0,0,1,.35-3.63Z"/>
      </g>
    </symbol>
    <symbol id="icon-cashbills"  viewBox="0 0 35.91 35.95">
      <g>
        <path d="M2.09,10.08a3.88,3.88,0,0,0,2.4-3.54L6,6.26a5.34,5.34,0,0,1-3.66,5.31h0l-.23-1.49ZM28.24,2.15A3.74,3.74,0,0,0,29.63,4a3.79,3.79,0,0,0,2,.66L31.9,6.1h-.2a5.07,5.07,0,0,1-2.92-.93,5.25,5.25,0,0,1-2-2.75l1.49-.28ZM12,14.92h0a6,6,0,1,1,12,0v0l9.51,0H35L33.26,5.15,32.47.62a.78.78,0,0,0-.32-.49A.78.78,0,0,0,31.59,0L27.2.82h-.06L.62,5.73A.75.75,0,0,0,0,6.59L1.34,14.9H2.86l9.1,0Z"/>
        <path d="M18,10.43a4.5,4.5,0,0,0-4.5,4.48v0l9,0h0A4.51,4.51,0,0,0,18,10.43Z"/>
        <path d="M17.94,20.93a4.5,4.5,0,1,0,4.48,4.51,4.5,4.5,0,0,0-4.48-4.51Z"/>
        <path d="M32.89,31.53A3.76,3.76,0,0,0,30,34.44H28.45A5.23,5.23,0,0,1,32.89,30v1.51Zm-15-.11a6,6,0,1,1,6-6,6,6,0,0,1-6,6Zm-12.07,3a3.76,3.76,0,0,0-2.91-2.93V29.94a5.24,5.24,0,0,1,4.42,4.44ZM35.9,20.29l-.67-3.81H29.77a3.75,3.75,0,0,0,3.15,3v1.5a5.24,5.24,0,0,1-4.66-4.48L7.4,16.41A5.21,5.21,0,0,1,3,20.83V19.32a3.76,3.76,0,0,0,2.93-2.91H1.47v3.75l0,10.48,0,4.5a.76.76,0,0,0,.75.75H6.66l22.47.06h4.49a.76.76,0,0,0,.76-.75V30.71l0-9.26,1-.32a.76.76,0,0,0,.5-.84Z"/>
      </g>
    </symbol>
    <symbol id="icon-shield" viewBox="0 0 29.94 35.92">
      <g>
        <path d="M29.91,8.18a.76.76,0,0,0-.74-.68c-.09,0-9.2-.24-13.56-7.18a.79.79,0,0,0-1.27,0C9.94,7.23.83,7.43.74,7.43A.75.75,0,0,0,0,8.18a.6.6,0,0,0,0,.2c-.12,2.31-.38,18.15,14.41,27.37a.79.79,0,0,0,.49.17.76.76,0,0,0,.54-.23C31.31,25.86,29.92,8.36,29.91,8.18Z"/>
      </g>
    </symbol>
    <symbol id="icon-credentials" viewBox="0 0 26.96 35.64">
      <g>
        <path d="M19.45,26.65l-12,0A4.5,4.5,0,0,0,3,31.1v3.74a.75.75,0,0,0,.75.75l19.47,0a.73.73,0,0,0,.75-.74V31.15a4.48,4.48,0,0,0-4.48-4.5Z"/>
        <path d="M26.83,18,14.15,0a.8.8,0,0,1,.13.42l0,12.8a4.51,4.51,0,1,1-1.49,0l0-12.8A.7.7,0,0,1,12.91,0L.14,17.93a.77.77,0,0,0,0,.89l5,6.75a5.94,5.94,0,0,1,2.28-.45l12,0a6,6,0,0,1,2.28.46l5.07-6.72a.78.78,0,0,0,0-.89Z"/>
      </g>
    </symbol>
    <symbol id="icon-plus-square"  width="24" height="24" viewBox="0 0 24 24">
 
        <path d="M14.286,2.25H1.714A1.715,1.715,0,0,0,0,3.964V16.536A1.715,1.715,0,0,0,1.714,18.25H14.286A1.715,1.715,0,0,0,16,16.536V3.964A1.715,1.715,0,0,0,14.286,2.25Zm-1.143,9a.43.43,0,0,1-.429.429H9.429v3.286A.43.43,0,0,1,9,15.393H7a.43.43,0,0,1-.429-.429V11.679H3.286a.43.43,0,0,1-.429-.429v-2a.43.43,0,0,1,.429-.429H6.571V5.536A.43.43,0,0,1,7,5.107H9a.43.43,0,0,1,.429.429V8.821h3.286a.43.43,0,0,1,.429.429Z" transform="translate(0 -2.25)" fill="#e4e4e4"/>
    </symbol>

    <symbol  id="icon-signout" width="24" height="24" viewBox="0 0 512 512">
      <path d="M180 448H96c-53 0-96-43-96-96V160c0-53 43-96 96-96h84c6.6 0 12 5.4 12 12v40c0 6.6-5.4 12-12 12H96c-17.7 0-32 14.3-32 32v192c0 17.7 14.3 32 32 32h84c6.6 0 12 5.4 12 12v40c0 6.6-5.4 12-12 12zm117.9-303.1l77.6 71.1H184c-13.3 0-24 10.7-24 24v32c0 13.3 10.7 24 24 24h191.5l-77.6 71.1c-10.1 9.2-10.4 25-.8 34.7l21.9 21.9c9.3 9.3 24.5 9.4 33.9.1l152-150.8c9.5-9.4 9.5-24.7 0-34.1L353 88.3c-9.4-9.3-24.5-9.3-33.9.1l-21.9 21.9c-9.7 9.6-9.3 25.4.7 34.6z"/>
    </symbol>


  </defs>
</svg>
